<svg width="24" height="24" viewBox="0 0 24 24" fill="none" xmlns="http://www.w3.org/2000/svg">
<g clip-path="url(#clip0_1_496)">
<path d="M19.0727 12.8789L19.3797 12.2447C21.0653 8.76243 19.7118 4.62301 16.3568 2.99903C13.0017 1.37504 8.91547 2.88147 7.22992 6.36372L6.92294 6.99793C6.55453 7.75905 5.9773 8.39806 5.264 8.83446L3.51602 9.90385C1.91941 10.8806 1.68188 13.1438 3.04847 14.3586C6.62348 17.5364 10.993 19.6514 15.7032 20.484C17.5038 20.8022 19.1314 19.2119 18.9071 17.3537L18.6615 15.3193C18.5612 14.4892 18.7043 13.64 19.0727 12.8789Z" stroke="#111111" stroke-width="1.5"/>
<path d="M4.89885 16.3402C4.72695 18.1988 5.77225 20.0959 7.64225 21.0011C9.51225 21.9063 11.6487 21.5492 12.9997 20.2614" stroke="#111111" stroke-width="1.5" stroke-linecap="round"/>
<path d="M14.6133 6.59961L12.8705 10.2" stroke="#111111" stroke-width="1.5" stroke-linecap="round"/>
</g>
<defs>
<clipPath id="clip0_1_496">
<rect width="24" height="24" rx="5" fill="white"/>
</clipPath>
</defs>
</svg>
