<svg width="121" height="28" viewBox="0 0 121 28" fill="none" xmlns="http://www.w3.org/2000/svg">
<path d="M24.5258 19.95C24.5258 21.7648 23.9437 23.2944 22.7795 24.5389C21.6153 25.7833 20.1795 26.6778 18.472 27.2222C16.7645 27.7407 14.8629 28 12.7674 28C8.65388 28 5.52348 27.1704 3.37618 25.5111C1.22888 23.8518 0.103484 21.6222 0 18.8222H6.75236C6.95932 20.0407 7.52849 20.9611 8.45985 21.5833C9.39121 22.1796 10.8271 22.4778 12.7674 22.4778C16.0271 22.4778 17.657 21.6611 17.657 20.0278C17.657 19.3796 17.3854 18.8352 16.8421 18.3944C16.2988 17.9278 15.7426 17.6037 15.1734 17.4222C14.6042 17.2407 13.7246 17.0074 12.5345 16.7222L8.49865 15.9444C6.11851 15.4 4.24286 14.4926 2.87169 13.2222C1.52639 11.9259 0.853746 10.2667 0.853746 8.24444C0.853746 5.65185 1.88859 3.62963 3.95828 2.17778C6.05384 0.725926 8.84791 0 12.3405 0C15.8849 0 18.6531 0.751853 20.6451 2.25556C22.6631 3.75926 23.7367 5.76852 23.8661 8.28333H17.0749C16.7127 6.44259 15.1346 5.52222 12.3405 5.52222C9.26185 5.52222 7.72252 6.31296 7.72252 7.89444C7.72252 8.6463 8.08472 9.22963 8.80911 9.64445C9.5335 10.0593 10.6589 10.4352 12.1853 10.7722L16.0659 11.4722C21.7058 12.613 24.5258 15.4389 24.5258 19.95Z" fill="white"/>
<path d="M54.9948 24.0333C52.0196 26.6778 48.1389 28 43.3528 28C38.5666 28 34.686 26.6778 31.7108 24.0333C28.7356 21.3889 27.248 18.0444 27.248 14C27.248 9.95555 28.7356 6.61111 31.7108 3.96667C34.686 1.32222 38.5796 0 43.3916 0C48.1519 0 52.0196 1.32222 54.9948 3.96667C57.9699 6.61111 59.4575 9.95555 59.4575 14C59.4575 18.0185 57.9699 21.363 54.9948 24.0333ZM36.5228 19.7556C38.282 21.2333 40.5716 21.9722 43.3916 21.9722C46.2115 21.9722 48.4752 21.2333 50.1827 19.7556C51.8902 18.2519 52.744 16.3333 52.744 14C52.744 11.6667 51.8773 9.76111 50.1439 8.28333C48.4364 6.77963 46.1857 6.02778 43.3916 6.02778C40.5458 6.02778 38.2562 6.77963 36.5228 8.28333C34.7894 9.76111 33.9228 11.6667 33.9228 14C33.9228 16.3593 34.7894 18.2778 36.5228 19.7556Z" fill="white"/>
<path d="M81.7804 27.6111L75.0281 18.5111H74.6788L67.9265 27.6111H59.8159L70.3325 13.5722L60.3204 0.388888H68.3145L74.6788 8.71111H75.0281L81.3924 0.388888H89.0761L79.0252 13.5722L89.5806 27.6111H81.7804Z" fill="white"/>
<path d="M113.045 0.388888H121L109.319 16.0222V27.6111H102.8V16.0222L91.1189 0.388888H99.0354L105.865 9.45H106.253L113.045 0.388888Z" fill="white"/>
</svg>
