<svg width="96" height="72" viewBox="0 0 96 72" fill="none" xmlns="http://www.w3.org/2000/svg">
<g filter="url(#filter0_dd_302_8866)">
<rect x="14" y="7" width="68" height="44" fill="white"/>
<path d="M41.1732 42.319V40.5795C41.1833 40.4336 41.1623 40.2872 41.1116 40.1501C41.061 40.013 40.9818 39.8883 40.8794 39.7843C40.777 39.6803 40.6536 39.5995 40.5177 39.5472C40.3817 39.4948 40.2362 39.4722 40.0908 39.4808C39.9 39.4682 39.7094 39.5073 39.5388 39.594C39.3682 39.6807 39.2239 39.8118 39.1209 39.9736C39.0271 39.8167 38.8928 39.688 38.7323 39.6013C38.5718 39.5145 38.3909 39.4729 38.2088 39.4808C38.0501 39.4727 37.892 39.5065 37.7502 39.5787C37.6085 39.6509 37.4879 39.759 37.4006 39.8924V39.5504H36.8002V42.319H37.4064V40.7854C37.393 40.6905 37.4007 40.5938 37.429 40.5023C37.4574 40.4108 37.5056 40.3268 37.5703 40.2563C37.6349 40.1858 37.7143 40.1307 37.8028 40.0948C37.8913 40.059 37.9866 40.0433 38.0818 40.049C38.4802 40.049 38.6822 40.3099 38.6822 40.7796V42.319H39.2884V40.7854C39.276 40.6907 39.2845 40.5944 39.3132 40.5034C39.3419 40.4124 39.3902 40.3288 39.4546 40.2586C39.5191 40.1883 39.598 40.1332 39.686 40.097C39.774 40.0607 39.8688 40.0444 39.9638 40.049C40.3737 40.049 40.5699 40.3099 40.5699 40.7796V42.319H41.1732ZM44.5503 40.9361V39.5533H43.9442V39.8896C43.8424 39.7576 43.7107 39.652 43.5601 39.5814C43.4095 39.5108 43.2443 39.4773 43.0783 39.4837C42.6955 39.4837 42.3284 39.6364 42.0577 39.9082C41.7871 40.1801 41.635 40.5488 41.635 40.9332C41.635 41.3177 41.7871 41.6864 42.0577 41.9582C42.3284 42.2301 42.6955 42.3828 43.0783 42.3828C43.2443 42.3892 43.4095 42.3557 43.5601 42.2851C43.7107 42.2145 43.8424 42.1089 43.9442 41.9769V42.3132H44.5446L44.5503 40.9361ZM42.3191 40.9361C42.3287 40.773 42.3856 40.6162 42.4827 40.4851C42.5799 40.354 42.7131 40.2544 42.8659 40.1983C43.0188 40.1423 43.1846 40.1324 43.343 40.1699C43.5014 40.2073 43.6454 40.2905 43.7573 40.4091C43.8693 40.5277 43.9442 40.6766 43.9729 40.8375C44.0017 40.9983 43.9829 41.1641 43.919 41.3144C43.8552 41.4647 43.7489 41.593 43.6134 41.6834C43.4778 41.7738 43.3189 41.8224 43.1562 41.8233C43.0413 41.826 42.9271 41.8046 42.8209 41.7604C42.7148 41.7162 42.6189 41.6503 42.5396 41.5668C42.4603 41.4832 42.3992 41.384 42.3602 41.2754C42.3212 41.1668 42.3053 41.0513 42.3134 40.9361H42.3191ZM57.3777 39.4866C57.5754 39.4861 57.7713 39.5235 57.955 39.5967C58.1303 39.6673 58.2902 39.7717 58.4255 39.904C58.559 40.0352 58.665 40.192 58.7372 40.365C58.888 40.7367 58.888 41.1529 58.7372 41.5247C58.6651 41.6977 58.5591 41.8545 58.4255 41.9856C58.2902 42.118 58.1303 42.2224 57.955 42.2929C57.5744 42.4415 57.1522 42.4415 56.7716 42.2929C56.597 42.2225 56.4381 42.118 56.304 41.9856C56.1717 41.854 56.0667 41.6973 55.9951 41.5247C55.8446 41.1529 55.8446 40.7368 55.9951 40.365C56.0667 40.1924 56.1717 40.0357 56.304 39.904C56.4381 39.7716 56.597 39.6672 56.7716 39.5967C56.9619 39.5175 57.1659 39.4771 57.3719 39.4779L57.3777 39.4866ZM57.3777 40.0664C57.2602 40.0648 57.1434 40.0865 57.0342 40.1302C56.9314 40.1716 56.838 40.2338 56.76 40.3128C56.6804 40.3961 56.6185 40.4947 56.5782 40.6027C56.49 40.8342 56.49 41.0902 56.5782 41.3217C56.6185 41.4298 56.6803 41.5285 56.76 41.6116C56.838 41.6908 56.9313 41.7529 57.0342 41.7943C57.2541 41.8808 57.4984 41.8808 57.7183 41.7943C57.8261 41.7542 57.9244 41.692 58.007 41.6116C58.0867 41.5286 58.1486 41.4299 58.1888 41.3217C58.277 41.0902 58.277 40.8342 58.1888 40.6027C58.1486 40.4946 58.0867 40.3959 58.007 40.3128C57.9244 40.2324 57.8261 40.1702 57.7183 40.1302C57.6094 40.0801 57.4916 40.0525 57.3719 40.049L57.3777 40.0664ZM47.812 40.9361C47.812 40.0664 47.2751 39.4866 46.5045 39.4866C46.1217 39.492 45.7567 39.6498 45.4899 39.9255C45.223 40.2011 45.0761 40.572 45.0815 40.9564C45.0868 41.3409 45.244 41.7074 45.5184 41.9755C45.7929 42.2435 46.1621 42.3911 46.5449 42.3857C46.9558 42.3998 47.3575 42.2615 47.6735 41.9972L47.3848 41.5507C47.1569 41.7343 46.8745 41.8364 46.5824 41.8407C46.3839 41.8578 46.1867 41.7965 46.0325 41.6698C45.8783 41.5431 45.7794 41.361 45.7569 41.1623H47.8034C47.812 41.0898 47.812 41.0173 47.812 40.9361ZM45.7598 40.6926C45.7709 40.5086 45.8526 40.336 45.9877 40.2111C46.1228 40.0863 46.3007 40.0188 46.4843 40.0229C46.5741 40.021 46.6634 40.0369 46.7472 40.0696C46.8309 40.1024 46.9074 40.1514 46.9723 40.2139C47.0371 40.2763 47.0891 40.351 47.1252 40.4336C47.1614 40.5163 47.1809 40.6053 47.1828 40.6955L45.7598 40.6926ZM50.3377 40.2577C50.0741 40.1053 49.7759 40.0234 49.4717 40.02C49.1427 40.02 48.9464 40.1418 48.9464 40.3447C48.9464 40.5476 49.1542 40.5824 49.414 40.6172L49.7026 40.6578C50.303 40.7448 50.6667 40.9999 50.6667 41.487C50.6667 41.974 50.2049 42.3915 49.4111 42.3915C48.9857 42.4029 48.5679 42.2769 48.219 42.032L48.5077 41.5623C48.7726 41.7597 49.0959 41.8618 49.4255 41.8523C49.8354 41.8523 50.0548 41.7305 50.0548 41.516C50.0548 41.3594 49.8989 41.2724 49.5699 41.226L49.2812 41.1855C48.6635 41.0985 48.3287 40.8202 48.3287 40.3679C48.3287 39.8171 48.779 39.4808 49.4833 39.4808C49.8775 39.4675 50.2672 39.5681 50.6061 39.7707L50.3377 40.2577ZM53.2241 40.1012H52.2456V41.3507C52.2456 41.6406 52.3437 41.8146 52.6439 41.8146C52.8313 41.8083 53.014 41.7545 53.175 41.658L53.3482 42.1741C53.1232 42.3151 52.863 42.3895 52.5977 42.3886C51.8877 42.3886 51.6395 42.0059 51.6395 41.3623V40.1012H51.0795V39.5504H51.6395V38.7096H52.2456V39.5504H53.2241V40.1012ZM55.2995 39.4808C55.4451 39.4813 55.5896 39.5068 55.7267 39.5562L55.5419 40.136C55.4226 40.0882 55.2951 40.0646 55.1667 40.0664C54.7741 40.0664 54.5894 40.3215 54.5894 40.7796V42.3306H53.989V39.562H54.5836V39.8983C54.6573 39.7711 54.7638 39.6663 54.8918 39.5949C55.0198 39.5235 55.1646 39.4881 55.311 39.4924L55.2995 39.4808ZM59.4502 41.916C59.4877 41.9156 59.525 41.9225 59.5599 41.9363C59.593 41.9499 59.6234 41.9696 59.6493 41.9943C59.6747 42.0193 59.6953 42.0488 59.71 42.0813C59.7246 42.1151 59.7321 42.1516 59.7321 42.1886C59.7321 42.2255 59.7246 42.262 59.71 42.2958C59.6953 42.3283 59.6747 42.3578 59.6493 42.3828C59.6234 42.4075 59.593 42.4272 59.5599 42.4408C59.5253 42.4561 59.4879 42.464 59.4502 42.464C59.3955 42.4636 59.342 42.4475 59.296 42.4178C59.25 42.388 59.2134 42.3457 59.1904 42.2958C59.1759 42.2619 59.1685 42.2254 59.1685 42.1886C59.1685 42.1517 59.1759 42.1152 59.1904 42.0813C59.2051 42.0488 59.2256 42.0193 59.251 41.9943C59.277 41.9696 59.3073 41.9499 59.3405 41.9363C59.3709 41.9242 59.4031 41.9173 59.4357 41.916H59.4502ZM59.4502 42.406C59.479 42.4062 59.5075 42.4002 59.5339 42.3886C59.5587 42.3775 59.5812 42.3617 59.6003 42.3422C59.6248 42.3174 59.6428 42.2871 59.653 42.2537C59.6631 42.2203 59.665 42.1849 59.6585 42.1507C59.6519 42.1164 59.6372 42.0842 59.6155 42.057C59.5937 42.0297 59.5657 42.0082 59.5339 41.9943C59.5075 41.9827 59.479 41.9768 59.4502 41.9769C59.4214 41.9771 59.3929 41.983 59.3665 41.9943C59.3405 42.005 59.317 42.0208 59.2972 42.0407C59.2611 42.0803 59.2411 42.132 59.2411 42.1856C59.2411 42.2393 59.2611 42.291 59.2972 42.3306C59.3172 42.3509 59.341 42.3671 59.3673 42.378C59.3935 42.389 59.4217 42.3945 59.4502 42.3944V42.406ZM59.4675 42.061C59.4944 42.0597 59.521 42.0679 59.5425 42.0842C59.5514 42.0915 59.5583 42.1009 59.5629 42.1115C59.5674 42.1221 59.5693 42.1336 59.5685 42.1451C59.5689 42.1547 59.5674 42.1643 59.5639 42.1733C59.5604 42.1823 59.5551 42.1904 59.5483 42.1972C59.5316 42.2125 59.5102 42.2217 59.4877 42.2233L59.5714 42.319H59.505L59.4271 42.2233H59.4011V42.319H59.3463V42.0523L59.4675 42.061ZM59.404 42.1103V42.1799H59.4675C59.4788 42.1832 59.4908 42.1832 59.5021 42.1799C59.5042 42.1758 59.5052 42.1713 59.5052 42.1668C59.5052 42.1623 59.5042 42.1578 59.5021 42.1538C59.5042 42.1497 59.5052 42.1452 59.5052 42.1407C59.5052 42.1362 59.5042 42.1317 59.5021 42.1277C59.4908 42.1243 59.4788 42.1243 59.4675 42.1277L59.404 42.1103Z" fill="#000008"/>
<path d="M52.3582 18.4274H43.2659V34.8393H52.3582V18.4274Z" fill="#7673C0"/>
<path d="M43.8432 26.6348C43.8415 25.054 44.1979 23.4935 44.8856 22.0716C45.5732 20.6496 46.5739 19.4034 47.812 18.4274C46.2791 17.2174 44.4381 16.4649 42.4995 16.2561C40.5609 16.0472 38.6029 16.3904 36.8493 17.2463C35.0957 18.1022 33.6173 19.4364 32.5829 21.0964C31.5485 22.7563 31 24.6751 31 26.6334C31 28.5916 31.5485 30.5104 32.5829 32.1704C33.6173 33.8303 35.0957 35.1645 36.8493 36.0204C38.6029 36.8764 40.5609 37.2195 42.4995 37.0106C44.4381 36.8018 46.2791 36.0493 47.812 34.8393C46.5743 33.8636 45.5738 32.6179 44.8862 31.1965C44.1986 29.775 43.8419 28.2151 43.8432 26.6348Z" fill="#EB001B"/>
<path d="M63.6326 33.0998V32.7751H63.7683V32.7055H63.4248V32.7751H63.5605V33.1114L63.6326 33.0998ZM64.2994 33.0998V32.6939H64.1955L64.0743 32.9839L63.953 32.6939H63.8462V33.0998H63.9213V32.7954L64.0339 33.0592H64.1118L64.2243 32.7954V33.1027L64.2994 33.0998Z" fill="#00A1DF"/>
<path d="M64.6227 26.6348C64.6222 28.5927 64.0734 30.511 63.039 32.1705C62.0046 33.83 60.5263 35.1638 58.773 36.0195C57.0197 36.8752 55.0621 37.2183 53.1238 37.0096C51.1856 36.8009 49.3449 36.0489 47.812 34.8393C49.0492 33.8627 50.0495 32.6167 50.7373 31.1952C51.425 29.7736 51.7824 28.2138 51.7824 26.6333C51.7824 25.0529 51.425 23.493 50.7373 22.0715C50.0495 20.65 49.0492 19.404 47.812 18.4274C49.3449 17.217 51.1859 16.4642 53.1246 16.255C55.0633 16.0459 57.0214 16.3888 58.7752 17.2446C60.5291 18.1004 62.0078 19.4346 63.0423 21.0946C64.0769 22.7546 64.6255 24.6735 64.6256 26.6319L64.6227 26.6348Z" fill="#00A1DF"/>
<rect x="13.8358" y="6.83582" width="68.3284" height="44.3284" stroke="#D6DCE5" stroke-width="0.328358"/>
</g>
<defs>
<filter id="filter0_dd_302_8866" x="0.537547" y="0.104711" width="94.9249" height="70.9249" filterUnits="userSpaceOnUse" color-interpolation-filters="sRGB">
<feFlood flood-opacity="0" result="BackgroundImageFix"/>
<feColorMatrix in="SourceAlpha" type="matrix" values="0 0 0 0 0 0 0 0 0 0 0 0 0 0 0 0 0 0 127 0" result="hardAlpha"/>
<feOffset dy="0.656716"/>
<feGaussianBlur stdDeviation="3.28358"/>
<feColorMatrix type="matrix" values="0 0 0 0 0.717647 0 0 0 0 0.717647 0 0 0 0 0.717647 0 0 0 0.08 0"/>
<feBlend mode="normal" in2="BackgroundImageFix" result="effect1_dropShadow_302_8866"/>
<feColorMatrix in="SourceAlpha" type="matrix" values="0 0 0 0 0 0 0 0 0 0 0 0 0 0 0 0 0 0 127 0" result="hardAlpha"/>
<feOffset dy="6.56716"/>
<feGaussianBlur stdDeviation="6.56716"/>
<feColorMatrix type="matrix" values="0 0 0 0 0.717647 0 0 0 0 0.717647 0 0 0 0 0.717647 0 0 0 0.08 0"/>
<feBlend mode="normal" in2="effect1_dropShadow_302_8866" result="effect2_dropShadow_302_8866"/>
<feBlend mode="normal" in="SourceGraphic" in2="effect2_dropShadow_302_8866" result="shape"/>
</filter>
</defs>
</svg>
