<svg width="96" height="72" viewBox="0 0 96 72" fill="none" xmlns="http://www.w3.org/2000/svg">
<g filter="url(#filter0_dd_302_8864)">
<rect x="14" y="7" width="68" height="44" fill="white"/>
<path d="M52.8865 20.2931H42.8745V38.3639H52.8865V20.2931Z" fill="#FF5F00"/>
<path d="M43.5102 29.3285C43.5086 27.5881 43.9013 25.8702 44.6585 24.3048C45.4156 22.7394 46.5174 21.3675 47.8805 20.293C46.1925 18.9604 44.1653 18.1317 42.0306 17.9016C39.8958 17.6714 37.7397 18.0492 35.8086 18.9917C33.8775 19.9341 32.2494 21.4033 31.1103 23.2312C29.9712 25.0591 29.3672 27.172 29.3672 29.3285C29.3672 31.4849 29.9712 33.5978 31.1103 35.4257C32.2494 37.2537 33.8775 38.7228 35.8086 39.6653C37.7397 40.6078 39.8958 40.9855 42.0306 40.7554C44.1653 40.5252 46.1925 39.6965 47.8805 38.3639C46.5174 37.2894 45.4156 35.9175 44.6585 34.3521C43.9013 32.7867 43.5087 31.0688 43.5102 29.3285Z" fill="#EB001B"/>
<path d="M66.3933 29.3285C66.3933 31.4849 65.7894 33.5978 64.6504 35.4257C63.5113 37.2536 61.8833 38.7228 59.9522 39.6653C58.0212 40.6077 55.865 40.9855 53.7303 40.7554C51.5956 40.5252 49.5684 39.6965 47.8805 38.3639C49.2424 37.2883 50.3433 35.9162 51.1004 34.3511C51.8574 32.7859 52.2508 31.0686 52.2508 29.3285C52.2508 27.5884 51.8574 25.871 51.1004 24.3059C50.3433 22.7407 49.2424 21.3686 47.8805 20.293C49.5684 18.9604 51.5956 18.1317 53.7303 17.9016C55.865 17.6714 58.0212 18.0492 59.9522 18.9917C61.8833 19.9342 63.5113 21.4033 64.6504 23.2312C65.7894 25.0592 66.3933 27.1721 66.3933 29.3285Z" fill="#F79E1B"/>
<path d="M65.3016 36.4499V36.08H65.4501V36.0046H65.0719V36.08H65.2205V36.4499H65.3016ZM66.036 36.4499V36.0039H65.92L65.7867 36.3107L65.6533 36.0039H65.5373V36.4499H65.6191V36.1134L65.7442 36.4035H65.8291L65.9542 36.1127V36.4499H66.036Z" fill="#F79E1B"/>
<rect x="13.8358" y="6.83582" width="68.3284" height="44.3284" stroke="#D6DCE5" stroke-width="0.328358"/>
</g>
<defs>
<filter id="filter0_dd_302_8864" x="0.537546" y="0.104711" width="94.9249" height="70.9249" filterUnits="userSpaceOnUse" color-interpolation-filters="sRGB">
<feFlood flood-opacity="0" result="BackgroundImageFix"/>
<feColorMatrix in="SourceAlpha" type="matrix" values="0 0 0 0 0 0 0 0 0 0 0 0 0 0 0 0 0 0 127 0" result="hardAlpha"/>
<feOffset dy="0.656716"/>
<feGaussianBlur stdDeviation="3.28358"/>
<feColorMatrix type="matrix" values="0 0 0 0 0.717647 0 0 0 0 0.717647 0 0 0 0 0.717647 0 0 0 0.08 0"/>
<feBlend mode="normal" in2="BackgroundImageFix" result="effect1_dropShadow_302_8864"/>
<feColorMatrix in="SourceAlpha" type="matrix" values="0 0 0 0 0 0 0 0 0 0 0 0 0 0 0 0 0 0 127 0" result="hardAlpha"/>
<feOffset dy="6.56716"/>
<feGaussianBlur stdDeviation="6.56716"/>
<feColorMatrix type="matrix" values="0 0 0 0 0.717647 0 0 0 0 0.717647 0 0 0 0 0.717647 0 0 0 0.08 0"/>
<feBlend mode="normal" in2="effect1_dropShadow_302_8864" result="effect2_dropShadow_302_8864"/>
<feBlend mode="normal" in="SourceGraphic" in2="effect2_dropShadow_302_8864" result="shape"/>
</filter>
</defs>
</svg>
