<svg width="87" height="20" viewBox="0 0 87 20" fill="none" xmlns="http://www.w3.org/2000/svg">
<path d="M17.6342 14.25C17.6342 15.5463 17.2157 16.6389 16.3786 17.5278C15.5416 18.4167 14.5092 19.0556 13.2815 19.4444C12.0538 19.8148 10.6866 20 9.17985 20C6.22221 20 3.97143 19.4074 2.4275 18.2222C0.883573 17.037 0.0744061 15.4444 0 13.4444H4.855C5.00381 14.3148 5.41304 14.9722 6.0827 15.4167C6.75236 15.8426 7.78474 16.0556 9.17985 16.0556C11.5236 16.0556 12.6955 15.4722 12.6955 14.3056C12.6955 13.8426 12.5002 13.4537 12.1096 13.1389C11.719 12.8056 11.319 12.5741 10.9098 12.4444C10.5006 12.3148 9.86811 12.1481 9.01244 11.9444L6.1106 11.3889C4.39926 11 3.05065 10.3519 2.06477 9.44445C1.09749 8.51852 0.613851 7.33333 0.613851 5.88889C0.613851 4.03704 1.35791 2.59259 2.84603 1.55556C4.35276 0.518519 6.36172 0 8.87293 0C11.4213 0 13.4117 0.537038 14.844 1.61111C16.2949 2.68519 17.0669 4.12037 17.1599 5.91667H12.277C12.0166 4.60185 10.8819 3.94444 8.87293 3.94444C6.65935 3.94444 5.55256 4.50926 5.55256 5.63889C5.55256 6.17593 5.81298 6.59259 6.33382 6.88889C6.85466 7.18519 7.66383 7.4537 8.76132 7.69444L11.5515 8.19444C15.6067 9.00926 17.6342 11.0278 17.6342 14.25Z" fill="#111111"/>
<path d="M39.5417 17.1667C37.4025 19.0556 34.6123 20 31.171 20C27.7297 20 24.9395 19.0556 22.8003 17.1667C20.6611 15.2778 19.5916 12.8889 19.5916 10C19.5916 7.11111 20.6611 4.72222 22.8003 2.83333C24.9395 0.944444 27.739 0 31.1989 0C34.6216 0 37.4025 0.944444 39.5417 2.83333C41.6809 4.72222 42.7505 7.11111 42.7505 10C42.7505 12.8704 41.6809 15.2593 39.5417 17.1667ZM26.2602 14.1111C27.5251 15.1667 29.1713 15.6944 31.1989 15.6944C33.2265 15.6944 34.8541 15.1667 36.0818 14.1111C37.3095 13.037 37.9234 11.6667 37.9234 10C37.9234 8.33333 37.3002 6.97222 36.0539 5.91667C34.8262 4.84259 33.2079 4.30556 31.1989 4.30556C29.1527 4.30556 27.5065 4.84259 26.2602 5.91667C25.0139 6.97222 24.3907 8.33333 24.3907 10C24.3907 11.6852 25.0139 13.0556 26.2602 14.1111Z" fill="#111111"/>
<path d="M58.8008 19.7222L53.9458 13.2222H53.6947L48.8397 19.7222H43.0081L50.5696 9.69444L43.3708 0.277777H49.1187L53.6947 6.22222H53.9458L58.5218 0.277777H64.0464L56.8197 9.69444L64.4092 19.7222H58.8008Z" fill="#111111"/>
<path d="M81.28 0.277777H87L78.6014 11.4444V19.7222H73.9138V11.4444L65.5152 0.277777H71.2073L76.1181 6.75H76.3971L81.28 0.277777Z" fill="#111111"/>
</svg>
