<svg width="20" height="20" viewBox="0 0 20 20" fill="none" xmlns="http://www.w3.org/2000/svg">
<circle cx="10" cy="10" r="10" fill="#111111"/>
<path d="M8.85758 11.57C8.85758 11.0193 8.95558 10.548 9.15158 10.156C9.35691 9.764 9.73958 9.4 10.2996 9.064C10.7942 8.76533 11.1349 8.51333 11.3216 8.308C11.5176 8.09333 11.6156 7.82733 11.6156 7.51C11.6156 7.12733 11.4709 6.82867 11.1816 6.614C10.8922 6.39933 10.4816 6.292 9.94958 6.292C9.38958 6.292 8.96024 6.418 8.66158 6.67C8.37224 6.922 8.20424 7.244 8.15758 7.636H6.77158C6.79958 6.92667 7.07024 6.32 7.58358 5.816C8.10624 5.312 8.89958 5.06 9.96358 5.06C10.9342 5.06 11.6902 5.27467 12.2316 5.704C12.7822 6.124 13.0576 6.70733 13.0576 7.454C13.0576 7.986 12.9269 8.41533 12.6656 8.742C12.4042 9.06867 11.9889 9.41867 11.4196 9.792C10.9716 10.072 10.6589 10.352 10.4816 10.632C10.3042 10.912 10.2156 11.262 10.2156 11.682V12.214H8.85758V11.57ZM10.2436 14.79C10.0662 14.9767 9.84691 15.07 9.58558 15.07C9.32424 15.07 9.09558 14.9767 8.89958 14.79C8.71291 14.6033 8.61958 14.384 8.61958 14.132C8.61958 13.8707 8.71291 13.6467 8.89958 13.46C9.09558 13.2733 9.32424 13.18 9.58558 13.18C9.84691 13.18 10.0662 13.2733 10.2436 13.46C10.4302 13.6467 10.5236 13.8707 10.5236 14.132C10.5236 14.384 10.4302 14.6033 10.2436 14.79Z" fill="white"/>
</svg>
