<svg width="24" height="24" viewBox="0 0 24 24" fill="none" xmlns="http://www.w3.org/2000/svg">
<path fill-rule="evenodd" clip-rule="evenodd" d="M17.4752 10.5183C17.4752 14.4496 14.2882 17.6365 10.3569 17.6365C6.42558 17.6365 3.23862 14.4496 3.23862 10.5183C3.23862 6.58696 6.42558 3.4 10.3569 3.4C14.2882 3.4 17.4752 6.58696 17.4752 10.5183ZM15.9258 16.9642C14.4326 18.2554 12.4859 19.0365 10.3569 19.0365C5.65238 19.0365 1.83862 15.2228 1.83862 10.5183C1.83862 5.81376 5.65238 2 10.3569 2C15.0614 2 18.8752 5.81376 18.8752 10.5183C18.8752 12.5897 18.1358 14.4884 16.9065 15.965L21.0065 20.065L20.0166 21.0549L15.9258 16.9642Z" fill="#111111"/>
</svg>
